<svg xmlns="http://www.w3.org/2000/svg" viewBox="0 0 32 32" fill="none">
  <!-- Background circle with gradient -->
  <defs>
    <linearGradient id="bgGradient" x1="0%" y1="0%" x2="100%" y2="100%">
      <stop offset="0%" style="stop-color:#3b82f6;stop-opacity:1" />
      <stop offset="50%" style="stop-color:#8b5cf6;stop-opacity:1" />
      <stop offset="100%" style="stop-color:#ec4899;stop-opacity:1" />
    </linearGradient>
    <linearGradient id="docGradient" x1="0%" y1="0%" x2="100%" y2="0%">
      <stop offset="0%" style="stop-color:#10b981;stop-opacity:1" />
      <stop offset="100%" style="stop-color:#f43f5e;stop-opacity:1" />
    </linearGradient>
  </defs>
  
  <!-- Background -->
  <rect width="32" height="32" rx="8" fill="url(#bgGradient)"/>
  
  <!-- Left document -->
  <rect x="6" y="8" width="8" height="16" rx="1" fill="white" opacity="0.9"/>
  <rect x="7.5" y="10" width="5" height="1" rx="0.5" fill="url(#bgGradient)" opacity="0.5"/>
  <rect x="7.5" y="12" width="5" height="1" rx="0.5" fill="url(#bgGradient)" opacity="0.5"/>
  <rect x="7.5" y="14" width="3" height="1" rx="0.5" fill="#10b981" opacity="0.8"/>
  <rect x="7.5" y="16" width="5" height="1" rx="0.5" fill="url(#bgGradient)" opacity="0.5"/>
  <rect x="7.5" y="18" width="4" height="1" rx="0.5" fill="#f43f5e" opacity="0.8"/>
  
  <!-- Right document -->
  <rect x="18" y="8" width="8" height="16" rx="1" fill="white" opacity="0.9"/>
  <rect x="19.5" y="10" width="5" height="1" rx="0.5" fill="url(#bgGradient)" opacity="0.5"/>
  <rect x="19.5" y="12" width="5" height="1" rx="0.5" fill="url(#bgGradient)" opacity="0.5"/>
  <rect x="19.5" y="14" width="4" height="1" rx="0.5" fill="#10b981" opacity="0.8"/>
  <rect x="19.5" y="16" width="5" height="1" rx="0.5" fill="url(#bgGradient)" opacity="0.5"/>
  <rect x="19.5" y="18" width="3" height="1" rx="0.5" fill="#f43f5e" opacity="0.8"/>
  
  <!-- Comparison arrows -->
  <path d="M15 14 L17 14 M17 14 L16.5 13.5 M17 14 L16.5 14.5" stroke="white" stroke-width="1.5" stroke-linecap="round" opacity="0.9"/>
  <path d="M17 18 L15 18 M15 18 L15.5 17.5 M15 18 L15.5 18.5" stroke="white" stroke-width="1.5" stroke-linecap="round" opacity="0.9"/>
</svg>